<svg xmlns="http://www.w3.org/2000/svg" viewBox="0 0 1024 1024">
  <path d="M 850.00 783.50 L 842.50 780.00 L 836.50 742.00 L 821.50 706.00 L 808.50 688.00 L 781.00 662.50 L 746.00 643.50 L 632.00 602.50 L 628.00 598.50 L 608.00 593.50 L 523.00 558.50 L 508.00 559.50 L 478.00 573.50 L 469.00 574.50 L 438.00 588.50 L 432.00 588.50 L 326.00 628.50 L 290.00 648.50 L 263.50 673.00 L 244.50 700.00 L 234.50 730.00 L 229.50 764.00 L 224.00 769.50 L 219.00 767.50 L 206.50 735.00 L 202.50 714.00 L 202.50 689.00 L 212.50 649.00 L 227.50 622.00 L 249.00 596.50 L 284.00 566.50 L 349.00 527.50 L 406.00 501.50 L 406.50 498.00 L 367.00 469.50 L 331.50 434.00 L 305.50 393.00 L 296.50 366.00 L 295.50 354.00 L 284.00 342.50 L 274.00 337.50 L 262.00 336.50 L 223.00 337.50 L 191.00 347.50 L 185.00 352.50 L 164.00 356.50 L 149.00 351.50 L 133.50 339.00 L 131.50 331.00 L 134.50 322.00 L 147.50 308.00 L 177.50 264.00 L 206.00 236.50 L 249.00 207.50 L 286.00 188.50 L 288.50 199.00 L 279.50 212.00 L 280.00 221.50 L 340.00 211.50 L 434.00 147.50 L 436.50 153.00 L 420.50 172.00 L 402.50 201.00 L 387.50 230.00 L 377.50 258.00 L 372.50 282.00 L 372.50 318.00 L 377.50 341.00 L 392.50 370.00 L 424.00 403.50 L 494.00 438.50 L 522.00 448.50 L 648.00 388.50 L 669.50 368.00 L 689.50 338.00 L 694.50 325.00 L 699.50 301.00 L 699.50 269.00 L 693.50 242.00 L 669.50 186.00 L 635.50 139.00 L 636.00 133.50 L 641.00 133.50 L 732.00 196.50 L 792.00 206.50 L 792.50 197.00 L 782.50 181.00 L 787.00 173.50 L 846.00 207.50 L 893.50 248.00 L 893.50 336.00 L 886.00 337.50 L 866.00 327.50 L 846.00 322.50 L 799.00 322.50 L 787.00 327.50 L 775.50 342.00 L 775.50 351.00 L 760.50 389.00 L 736.50 423.00 L 697.00 460.50 L 637.50 502.00 L 733.00 547.50 L 768.00 567.50 L 807.00 596.50 L 838.50 629.00 L 859.50 665.00 L 868.50 700.00 L 868.50 734.00 L 859.50 767.00 L 850.00 783.50 Z M 687.00 258.50 L 653.00 239.50 L 614.00 224.50 L 572.00 214.50 L 539.00 213.50 L 530.00 210.50 L 479.00 214.50 L 436.00 224.50 L 404.00 237.50 L 400.50 235.00 L 424.50 189.00 L 460.00 143.50 L 505.00 137.50 L 560.00 138.50 L 565.00 141.50 L 595.00 143.50 L 640.00 156.50 L 652.50 171.00 L 677.50 216.00 L 687.50 243.00 L 689.50 257.00 L 687.00 258.50 Z M 876.00 647.50 L 857.50 625.00 L 818.50 589.00 L 827.50 539.00 L 827.50 490.00 L 816.50 431.00 L 807.50 404.00 L 793.50 378.00 L 801.50 349.00 L 812.00 339.50 L 847.00 338.50 L 859.50 342.00 L 883.50 397.00 L 893.50 434.00 L 893.50 594.00 L 876.00 647.50 Z M 187.00 672.50 L 182.50 670.00 L 167.50 632.00 L 152.50 569.00 L 148.50 500.00 L 157.50 431.00 L 167.50 396.00 L 179.00 369.50 L 218.00 354.50 L 263.00 354.50 L 266.50 359.00 L 249.50 389.00 L 234.50 428.00 L 224.50 476.00 L 224.50 552.00 L 234.50 595.00 L 199.50 641.00 L 187.00 672.50 Z M 556.00 889.50 L 494.00 889.50 L 452.00 883.50 L 387.00 864.50 L 336.00 839.50 L 294.00 810.50 L 243.50 763.00 L 242.50 752.00 L 246.50 735.00 L 257.50 711.00 L 275.00 689.50 L 280.00 689.50 L 292.50 707.00 L 334.00 748.50 L 395.00 787.50 L 433.00 802.50 L 473.00 812.50 L 544.00 816.50 L 577.00 812.50 L 618.00 802.50 L 683.00 772.50 L 728.00 738.50 L 748.50 718.00 L 772.50 687.00 L 780.00 684.50 L 814.50 716.00 L 825.50 734.00 L 819.50 748.00 L 781.00 789.50 L 738.00 824.50 L 666.00 863.50 L 600.00 883.50 L 556.00 889.50 Z" fill="#000000" fill-rule="evenodd"/>
</svg>
